<svg width="29" height="26" viewBox="0 0 29 26" fill="none" xmlns="http://www.w3.org/2000/svg">
<path d="M9.425 20.2222V4.33333H10.15C10.15 3.12963 10.5729 2.10648 11.4187 1.26389C12.2646 0.421296 13.2917 0 14.5 0C15.7083 0 16.7354 0.421296 17.5812 1.26389C18.4271 2.10648 18.85 3.12963 18.85 4.33333H19.575V20.2222H9.425ZM12.325 4.33333H16.675C16.675 3.70741 16.4696 3.18981 16.0587 2.78056C15.6479 2.3713 15.1283 2.16667 14.5 2.16667C13.8717 2.16667 13.3521 2.3713 12.9412 2.78056C12.5304 3.18981 12.325 3.70741 12.325 4.33333ZM21.75 20.2222V4.33333H23.2C23.9975 4.33333 24.6802 4.6162 25.2481 5.18194C25.816 5.74769 26.1 6.42778 26.1 7.22222V17.3333C26.1 18.1278 25.816 18.8079 25.2481 19.3736C24.6802 19.9394 23.9975 20.2222 23.2 20.2222H21.75ZM5.8 20.2222C5.0025 20.2222 4.31979 19.9394 3.75187 19.3736C3.18396 18.8079 2.9 18.1278 2.9 17.3333V7.22222C2.9 6.42778 3.18396 5.74769 3.75187 5.18194C4.31979 4.6162 5.0025 4.33333 5.8 4.33333H7.25V20.2222H5.8ZM1.45 26C1.03917 26 0.694792 25.8616 0.416875 25.5847C0.138958 25.3079 0 24.9648 0 24.5556C0 24.1463 0.138958 23.8032 0.416875 23.5264C0.694792 23.2495 1.03917 23.1111 1.45 23.1111H27.55C27.9608 23.1111 28.3052 23.2495 28.5831 23.5264C28.861 23.8032 29 24.1463 29 24.5556C29 24.9648 28.861 25.3079 28.5831 25.5847C28.3052 25.8616 27.9608 26 27.55 26H1.45Z" fill="white"/>
</svg>
