<svg width="20" height="20" viewBox="0 0 20 20" fill="none" xmlns="http://www.w3.org/2000/svg">
<path fill-rule="evenodd" clip-rule="evenodd" d="M19.3756 0.345916C19.7143 0.587959 19.927 0.935368 19.9669 1.31177C20.0069 1.68817 19.8708 2.06275 19.5885 2.35317L12.1592 9.99445L19.5885 17.6357C19.7346 17.7788 19.8458 17.9454 19.9155 18.1259C19.9853 18.3063 20.0123 18.4969 19.9949 18.6864C19.9774 18.8759 19.916 19.0605 19.8141 19.2294C19.7122 19.3982 19.5719 19.5479 19.4015 19.6696C19.2311 19.7913 19.0341 19.8825 18.8219 19.938C18.6098 19.9934 18.3868 20.012 18.1662 19.9925C17.9456 19.973 17.7317 19.9159 17.5372 19.8245C17.3427 19.7332 17.1715 19.6094 17.0337 19.4605L9.99439 12.2212L2.95596 19.4605C2.81726 19.6073 2.64592 19.729 2.45189 19.8185C2.25785 19.9081 2.04499 19.9637 1.82567 19.9821C1.60635 20.0005 1.38494 19.9814 1.17431 19.9259C0.963677 19.8704 0.768019 19.7795 0.598702 19.6586C0.429384 19.5377 0.289783 19.3892 0.188009 19.2217C0.0862346 19.0541 0.0243159 18.8709 0.00584994 18.6827C-0.012616 18.4945 0.0127391 18.305 0.0804419 18.1253C0.148145 17.9456 0.256845 17.7791 0.400229 17.6357L7.82955 9.99445L0.400229 2.35317C0.256845 2.20975 0.148145 2.04333 0.0804419 1.86359C0.0127391 1.68384 -0.012616 1.49436 0.00584994 1.30615C0.0243159 1.11794 0.0862346 0.93475 0.188009 0.767223C0.289783 0.599696 0.429384 0.451172 0.598702 0.33028C0.768019 0.209388 0.963677 0.118538 1.17431 0.063007C1.38494 0.00747635 1.60635 -0.0116275 1.82567 0.00680519C2.04499 0.0252379 2.25785 0.0808394 2.45189 0.17038C2.64592 0.259921 2.81726 0.381616 2.95596 0.528395L9.99439 7.76764L17.0337 0.528395C17.3161 0.238113 17.7214 0.0558257 18.1606 0.0216075C18.5997 -0.0126108 19.0368 0.10404 19.3756 0.345916Z" fill="black"/>
</svg>
